<svg width="760" height="560" viewBox="0 0 760 560" fill="none" xmlns="http://www.w3.org/2000/svg">
  <defs>
    <linearGradient id="cielo" x1="0" y1="0" x2="760" y2="560" gradientUnits="userSpaceOnUse">
      <stop stop-color="#143E35"/>
      <stop offset="1" stop-color="#07151F"/>
    </linearGradient>
    <linearGradient id="montana" x1="80" y1="80" x2="700" y2="470" gradientUnits="userSpaceOnUse">
      <stop stop-color="#F4B23E"/>
      <stop offset="1" stop-color="#0F7A4F"/>
    </linearGradient>
    <filter id="sombra" x="-20%" y="-20%" width="140%" height="140%">
      <feDropShadow dx="0" dy="20" stdDeviation="18" flood-color="#000" flood-opacity="0.4"/>
    </filter>
  </defs>
  <rect width="760" height="560" rx="34" fill="url(#cielo)"/>
  <circle cx="614" cy="120" r="54" fill="#F4B23E" opacity="0.86"/>
  <path d="M45 350L169 170L281 320L376 120L538 352L631 238L735 352V520H45V350Z" fill="url(#montana)" opacity="0.9" filter="url(#sombra)"/>
  <path d="M376 120L443 216L360 194L312 242L376 120Z" fill="#FFF8E8" opacity="0.9"/>
  <path d="M169 170L220 238L158 224L124 257L169 170Z" fill="#FFF8E8" opacity="0.85"/>
  <path d="M70 425C208 377 385 388 701 425V520H70V425Z" fill="#0B3B2E"/>
  <path d="M96 470C240 424 410 428 680 470" stroke="#33C481" stroke-width="12" stroke-linecap="round" opacity="0.85"/>
  <path d="M120 505C270 464 424 468 650 505" stroke="#F4B23E" stroke-width="10" stroke-linecap="round" opacity="0.85"/>
  <g opacity="0.95">
    <rect x="108" y="318" width="120" height="90" rx="18" fill="#FFF8E8" opacity="0.12"/>
    <path d="M132 380C145 346 171 332 199 329C196 359 178 383 145 392C150 376 162 359 181 348C160 352 145 365 132 380Z" fill="#33C481"/>
  </g>
  <g opacity="0.95">
    <rect x="486" y="315" width="132" height="92" rx="18" fill="#FFF8E8" opacity="0.12"/>
    <path d="M525 370C532 346 548 334 570 330C571 355 559 375 533 385C536 373 545 358 561 346C544 352 533 361 525 370Z" fill="#F4B23E"/>
  </g>
</svg>
