<svg width="700" height="420" viewBox="0 0 700 420" fill="none" xmlns="http://www.w3.org/2000/svg">
  <rect width="700" height="420" fill="#0A1E19"/>
  <path d="M0 310C90 250 180 255 280 305C370 350 490 360 700 290V420H0V310Z" fill="#0F7A4F" opacity="0.45"/>
  <path d="M0 210L110 95L220 226L315 78L460 245L555 135L700 240V420H0V210Z" fill="#F4B23E" opacity="0.23"/>
  <path d="M0 80H700" stroke="#fff" opacity="0.04" stroke-width="2"/>
  <path d="M0 160H700" stroke="#fff" opacity="0.04" stroke-width="2"/>
  <path d="M0 240H700" stroke="#fff" opacity="0.04" stroke-width="2"/>
  <path d="M0 320H700" stroke="#fff" opacity="0.04" stroke-width="2"/>
  <path d="M100 0V420" stroke="#fff" opacity="0.035" stroke-width="2"/>
  <path d="M220 0V420" stroke="#fff" opacity="0.035" stroke-width="2"/>
  <path d="M340 0V420" stroke="#fff" opacity="0.035" stroke-width="2"/>
  <path d="M460 0V420" stroke="#fff" opacity="0.035" stroke-width="2"/>
  <path d="M580 0V420" stroke="#fff" opacity="0.035" stroke-width="2"/>
</svg>
